<?xml version="1.0"?>
<svg xmlns="http://www.w3.org/2000/svg" viewBox="0 0 512 512" width="512" height="512"><g id="Fill_out_line" data-name="Fill out line"><circle cx="136" cy="136" r="96" style="fill:#d4e4f0"/><path d="M136,240A104,104,0,1,1,240,136,104.11791,104.11791,0,0,1,136,240Zm0-192a88,88,0,1,0,88,88A88.09957,88.09957,0,0,0,136,48Z" style="fill:#e04446"/><path d="M136,208a72,72,0,1,1,72-72A72.08124,72.08124,0,0,1,136,208Zm0-128a56,56,0,1,0,56,56A56.06322,56.06322,0,0,0,136,80Z" style="fill:#e04446"/><path d="M136,176a40,40,0,1,1,40-40A40.04552,40.04552,0,0,1,136,176Zm0-64a24,24,0,1,0,24,24A24.0275,24.0275,0,0,0,136,112Z" style="fill:#e04446"/><polygon points="88 48 88 88 48 88 24 64 24 48 48 48 48 24 64 24 88 48" style="fill:#ffefd6"/><path d="M488,245.1V408l-32,18.66992V496H256V416l-40,40-80-96,40-40,40,40,2.35986-20.26L229.6001,243.2a31.98722,31.98722,0,0,1,20.52-25.99L296,200l24-16h80l32,16,36.60986,15.69A31.99942,31.99942,0,0,1,488,245.1Z" style="fill:#529ddf"/><polygon points="400 152 400 184 344 224 328.48 198.14 320 184 288 184 272 128 256 128 272 88 280 56 384 56 400 152" style="fill:#fdc5ca"/><polygon points="314.367 244.733 328 272 352 272 360 248 344 224 314.367 244.733" style="fill:#e04446"/><path d="M314.36667,244.73333l.09309.08291A37.33484,37.33484,0,0,0,360,248l0,0-8,24H328Z" style="fill:#d6323f"/><polygon points="320 184 296 200 312 264 344 224 320 184" style="fill:#4384c3"/><polygon points="400 184 344 224 368 264 432 200 400 184" style="fill:#4384c3"/><polygon points="360 432 336 456 312 432 317.09 381.14 328 272 352 272 357.89 389.85 360 432" style="fill:#e04446"/><path d="M176,296v24l-32,32-24-16-40-8L44.97,292.97a16.61056,16.61056,0,0,1-5-11.88,16.992,16.992,0,0,1,29-12.12L96,296h32l-11.03-11.03a17.16411,17.16411,0,0,1-3.49-4.97,16.41792,16.41792,0,0,1-1.51-6.91,16.992,16.992,0,0,1,29-12.12Z" style="fill:#fdc5ca"/><rect x="328" y="456" width="16" height="40" style="fill:#2676b1"/><path d="M415.12012,71.37,400,152,336,88V56H272a16,16,0,0,1,0-32H375.80005A40.00142,40.00142,0,0,1,415.12012,71.37Z" style="fill:#ba8b5d"/><polygon points="416 280 416 368 360 408 392 464 488 408 488 280 416 280" style="fill:#529ddf"/><path d="M360,408h-8l-15.19333-10.12889a15.87645,15.87645,0,0,0-17.61334,0l0,0a15.87644,15.87644,0,0,0-3.05123,23.76707L318.24479,424l-9.4721,10.63923A16,16,0,0,1,296.82251,440H281.08033a8,8,0,0,0-6.14577,13.12148l24.2679,29.12147A16,16,0,0,0,311.494,488h18.6797a16,16,0,0,0,10.28836-3.74645l42.649-35.80911Z" style="fill:#fdc5ca"/><path d="M320,104l11.02944-11.02944a16.97054,16.97054,0,0,1,12-4.97056h0A16.97054,16.97054,0,0,1,360,104.97055v8.40205a35.31368,35.31368,0,0,1-10.34314,24.97054h0A19.31369,19.31369,0,0,1,336,144h0a19.31369,19.31369,0,0,1-13.65684-5.65685L320,136Z" style="fill:#fdc5ca"/><path d="M304,104a8,8,0,0,0,0-16h-8a8,8,0,0,0,0,16Z"/><path d="M471.75684,208.335l-36.38868-15.59521L408,179.05566V152.745l14.98145-79.8993A48.00069,48.00069,0,0,0,375.80273,16H272a23.99807,23.99807,0,0,0-2.21924,47.89349l-5.40967,21.63922-15.79882,39.4961A7.99957,7.99957,0,0,0,256,136h9.96582l14.3418,50.19775A7.99983,7.99983,0,0,0,288,192h5.57788l-1.24878.83252-45.02051,16.88281a39.91467,39.91467,0,0,0-25.65527,32.55908l-11.6875,100.37793L184,316.686V296a8.00035,8.00035,0,0,0-2.34277-5.65674l-35.0293-35.0293a24.971,24.971,0,0,0-40.72754,8.10108A24.52076,24.52076,0,0,0,109.0127,288H99.31348L74.62793,263.314a24.97074,24.97074,0,1,0-35.31445,35.31348l35.02929,35.0293a8.0083,8.0083,0,0,0,4.08789,2.188l39.81348,7.9624,18.10767,4.5271-6.009,6.009a7.99931,7.99931,0,0,0-.48828,10.77832l80,96a7.99887,7.99887,0,0,0,5.78321,2.87012c.12109.00537.24218.0083.3623.0083a8.002,8.002,0,0,0,5.65723-2.34326L248,435.314V496h16V280H248V412.686l-31.46191,31.46289-69.71485-83.65821L176,331.31348l34.34277,34.34326,16,16,11.31446-11.31348L224.394,357.08008l13.14405-112.88819a23.93521,23.93521,0,0,1,15.38769-19.49511l37.488-14.058,13.82544,55.3017a7.98755,7.98755,0,0,0,13.563,3.55225l2.00976,4.01953-12.3938,125.48144a23.84665,23.84665,0,0,0,.34058,24.75293l-4.96094,5.57276A8.00847,8.00847,0,0,1,296.82227,432H281.08008a16.00034,16.00034,0,0,0-12.291,26.24316l24.26758,29.12207A23.93948,23.93948,0,0,0,311.49414,496h18.67969a24.03982,24.03982,0,0,0,15.43262-5.61963l35.31176-29.64819,4.1355,7.23706a8.00068,8.00068,0,0,0,10.97754,2.94092L448,440.595V496h16V431.26172l28.03125-16.35156A8.00119,8.00119,0,0,0,496,408V245.10059A39.95428,39.95428,0,0,0,471.75684,208.335ZM121.94043,328.23877c-.12305-.03076-.24707-.05859-.37109-.0835l-37.625-7.5249L50.627,287.314A8.97094,8.97094,0,0,1,56.9707,272a8.91037,8.91037,0,0,1,6.34278,2.62744l27.02929,27.0293A8.00076,8.00076,0,0,0,96,304h40a8,8,0,0,0,0-16h-4.68652l-8.68653-8.686A8.97094,8.97094,0,0,1,128.9707,264a8.91037,8.91037,0,0,1,6.34278,2.62744L168,299.31348V316.686l-18.4541,18.4541ZM335.24854,280h9.06738L349,396.3855l-7.75586-5.17066a23.81584,23.81584,0,0,0-16.60693-3.78076Zm11.80712-16H332.94434l-4.11524-8.23,14.23023-17.78766,9.27563,15.45947Zm7.6045-37.7829,46.07031-32.90747,17.76391,8.882-48.90649,48.90655ZM264,40a8.00917,8.00917,0,0,1,8-8H375.80273a32.00054,32.00054,0,0,1,31.45215,37.89746l-12.32226,65.72119L368,108.686V104.9707a24.9974,24.9974,0,0,0-24-24.9461V56a8.00008,8.00008,0,0,0-8-8H272A8.00917,8.00917,0,0,1,264,40Zm15.69238,85.80225A7.99983,7.99983,0,0,0,272,120h-4.18359l11.61132-29.02881a7.8246,7.8246,0,0,0,.333-1.03076L286.24585,64H328V85.02948a25.32507,25.32507,0,0,0-2.62793,2.28448l-11.0293,11.0293,11.31446,11.31348,11.02929-11.0293A8.97038,8.97038,0,0,1,352,104.9707v8.40186a27.13451,27.13451,0,0,1-8,19.314,11.31485,11.31485,0,0,1-16,.00049l-2.34277-2.34326-11.31446,11.3125L316.68555,144a27.3155,27.3155,0,0,0,38.6289,0,43.17946,43.17946,0,0,0,9.94434-15.42731L392,155.314v24.56885l-45.59863,32.57031-16.32764-27.213,11.5835-11.58337-11.31446-11.31348L316.686,176H294.03418Zm25.43579,77.72686,12.32862-8.219,16.821,28.03607-18.43408,23.043ZM335.31738,478.127A8.00916,8.00916,0,0,1,330.17383,480H311.49414a7.97981,7.97981,0,0,1-6.14648-2.87842L281.14258,448h15.67969a24.02045,24.02045,0,0,0,17.9248-8.041l9.47266-10.63916a7.999,7.999,0,0,0-.001-10.64062l-2.10156-2.36035a7.87618,7.87618,0,0,1,1.51367-11.791,7.85546,7.85546,0,0,1,8.73828-.00049l15.19336,10.12891A7.99836,7.99836,0,0,0,352,416h3.35693l17.49341,30.61328ZM480,403.40527l-85.05859,49.61719L370.5332,410.30762l50.11621-35.79785A7.99968,7.99968,0,0,0,424,368V280H408v83.88281l-43.05811,30.75635-4.866-120.90295,2.11889-4.23743a7.99386,7.99386,0,0,0,11.46241.158l60.16992-60.17L465.4541,223.041A23.97366,23.97366,0,0,1,480,245.10059Z"/><path d="M136,48a87.892,87.892,0,1,1-85.22852,65.99414l-15.49414-3.98828a103.89265,103.89265,0,1,0,74.72852-74.729L113.99414,50.772A88.345,88.345,0,0,1,136,48Z"/><path d="M136,80A55.94347,55.94347,0,1,1,84.06738,115.002l-14.83008-6.0039a71.94326,71.94326,0,1,0,39.76075-39.76123l6.0039,14.83105A55.68759,55.68759,0,0,1,136,80Z"/><path d="M136,160a24.0275,24.0275,0,0,1-24-24H96a40,40,0,1,0,40-40v16a24,24,0,0,1,0,48Z"/><path d="M48,96H84.686l45.65673,45.65674,11.31446-11.31348L96,84.686V48a8.00035,8.00035,0,0,0-2.34277-5.65674l-24-24A8.00076,8.00076,0,0,0,64,16H48a8.00008,8.00008,0,0,0-8,8V40H24a8.00008,8.00008,0,0,0-8,8V64a8.00035,8.00035,0,0,0,2.34277,5.65674l24,24A8.00076,8.00076,0,0,0,48,96ZM60.68652,32,80,51.314V68.686l-24-24V32ZM32,56H44.686l24,24H51.31348L32,60.686Z"/></g></svg>
