<svg height="512" viewBox="0 0 256 256" width="512" xmlns="http://www.w3.org/2000/svg"><path d="m73.3 115.947a69.137 69.137 0 0 1 138.274 0v3.724c-.479 3.969-.869 7.217-.867 7.216s1.787 3.543 3.968 7.874l11.643 23.129c2.18 4.331 0 7.875-4.853 7.875h-1.937a8.843 8.843 0 0 0 -8.817 8.817v23.849a8.843 8.843 0 0 1 -8.817 8.817h-14.855a8.843 8.843 0 0 0 -8.817 8.817v1.42a8.843 8.843 0 0 1 -8.817 8.817h-67.567a8.843 8.843 0 0 1 -8.817-8.817v-44.385a34.24 34.24 0 0 0 -4.9-16.148s-14.821-22.187-14.821-41.005z" fill="#63bce7"/><path d="m226.315 157.891-11.643-23.129c-2.18-4.332-3.966-7.875-3.968-7.874s.388-3.247.867-7.216v-3.724a69.051 69.051 0 0 0 -78.387-68.5 69.137 69.137 0 0 1 59.887 68.5v3.724c-.479 3.969-.869 7.217-.867 7.216s1.787 3.543 3.968 7.874l11.643 23.129c2.18 4.331 0 7.875-4.853 7.875h-1.937a8.843 8.843 0 0 0 -8.817 8.817v23.849a8.843 8.843 0 0 1 -8.817 8.817h-14.852a8.843 8.843 0 0 0 -8.817 8.817v1.42a8.843 8.843 0 0 1 -8.817 8.817h18.5a8.843 8.843 0 0 0 8.817-8.817v-1.42a8.843 8.843 0 0 1 8.817-8.817h14.851a8.843 8.843 0 0 0 8.817-8.817v-23.848a8.843 8.843 0 0 1 8.817-8.817h1.937c4.85 0 7.034-3.544 4.854-7.876z" fill="#63e2e7"/><path d="m111.521 217.486v-44.386a34.24 34.24 0 0 0 -4.9-16.148s-14.821-22.187-14.821-41.005a69.137 69.137 0 0 1 59.887-68.5 69.051 69.051 0 0 0 -78.387 68.5c0 18.818 14.826 41.006 14.826 41.006a34.24 34.24 0 0 1 4.9 16.148v44.386a8.843 8.843 0 0 0 8.817 8.817h18.5a8.843 8.843 0 0 1 -8.822-8.818z" fill="#6377e7"/><circle cx="142.38" cy="119.454" fill="#9e9e9e" r="34.625"/><rect fill="#f46275" height="59.327" rx="9.986" width="21.633" x="131.563" y="166.976"/><path d="m142.38 97.3v22.152h-22.152a22.152 22.152 0 1 0 22.152-22.152z" fill="#f8af23"/><path d="m142.38 97.3a22.152 22.152 0 0 0 -22.152 22.152h22.152z" fill="#f46275"/><path d="m111.486 59.266a41.323 41.323 0 1 0 -69.186 30.51v18.914a27.866 27.866 0 0 0 27.866 27.866 27.866 27.866 0 0 0 27.863-27.866v-18.914a41.213 41.213 0 0 0 13.457-30.51z" fill="#f8af23"/><path d="m60.8 108.69v-18.914a41.318 41.318 0 0 1 18.613-70.776 41.319 41.319 0 0 0 -37.113 70.776v18.914a27.866 27.866 0 0 0 27.866 27.866 27.815 27.815 0 0 0 9.25-1.579 27.873 27.873 0 0 1 -18.616-26.287z" fill="#f87023"/><path d="m42.3 108.69a27.866 27.866 0 0 0 27.866 27.866 27.867 27.867 0 0 0 27.863-27.866v-3.69h-55.729z" fill="#9e9e9e"/><path d="m60.8 108.69v-3.69h-18.5v3.693a27.866 27.866 0 0 0 27.866 27.866 27.809 27.809 0 0 0 9.25-1.579 27.873 27.873 0 0 1 -18.616-26.29z" fill="#707070"/><path d="m50.538 51.407h9.024v18.722h-9.024z" fill="#f46275"/><path d="m65.651 44.892h9.024v25.237h-9.024z" fill="#63bce7"/><path d="m80.763 38.376h9.024v31.752h-9.024z" fill="#9e9e9e"/><g fill="#3f3679"><path d="m25.89 236.558h-18.5a1.5 1.5 0 1 0 0 3h18.5a1.5 1.5 0 1 0 0-3z"/><path d="m248.61 236.558h-18.5a1.5 1.5 0 0 0 0 3h18.5a1.5 1.5 0 0 0 0-3z"/><path d="m215.337 236.558h-174.674a1.5 1.5 0 0 0 0 3h174.674a1.5 1.5 0 0 0 0-3z"/><path d="m7.39 227.8h7.944a1.5 1.5 0 1 0 0-3h-7.944a1.5 1.5 0 1 0 0 3z"/><path d="m240.667 227.8h7.944a1.5 1.5 0 0 0 0-3h-7.944a1.5 1.5 0 0 0 0 3z"/><path d="m25.89 227.8h204.22a1.5 1.5 0 0 0 0-3h-53.44a10.283 10.283 0 0 0 3.053-7.316v-1.421a7.325 7.325 0 0 1 7.317-7.316h14.852a10.328 10.328 0 0 0 10.317-10.316v-23.847a7.325 7.325 0 0 1 7.316-7.317h1.938c2.885 0 5.137-1.075 6.339-3.026s1.15-4.446-.147-7.023l-14.445-28.693c-.417-.827-.724-1.437-.967-1.885.119-.993.44-3.668.817-6.789a1.467 1.467 0 0 0 .011-.18v-3.725a70.717 70.717 0 0 0 -70.637-70.637 69.9 69.9 0 0 0 -30.074 6.708 42.819 42.819 0 1 0 -71.56 38.413v18.26a29.35 29.35 0 0 0 35.658 28.68 116.137 116.137 0 0 0 10.421 20.416 32.927 32.927 0 0 1 4.642 15.314v44.386a10.283 10.283 0 0 0 3.053 7.316h-68.684a1.5 1.5 0 0 0 0 3zm115.659-3a8.5 8.5 0 0 1 -8.486-8.485v-39.353a8.5 8.5 0 0 1 8.486-8.486h1.662a8.5 8.5 0 0 1 8.486 8.486v39.355a8.5 8.5 0 0 1 -8.486 8.485zm.831-72.224a33.125 33.125 0 1 1 33.12-33.122 33.162 33.162 0 0 1 -33.12 33.125zm-112.04-93.31a39.823 39.823 0 1 1 66.678 29.4 1.5 1.5 0 0 0 -.488 1.107v13.727h-24.867v-26.25a1.5 1.5 0 0 0 -3 0v26.25h-24.863v-13.725a1.5 1.5 0 0 0 -.488-1.107 39.925 39.925 0 0 1 -12.972-29.402zm13.46 49.424v-2.19h52.729v2.193a26.366 26.366 0 0 1 -52.733 0zm50.725 108.8v-44.39a35.909 35.909 0 0 0 -5.151-16.98 115.329 115.329 0 0 1 -10.006-19.548 29.412 29.412 0 0 0 20.161-27.882v-18.26a42.934 42.934 0 0 0 13.457-31.164c0-1.386-.072-2.756-.2-4.109a66.923 66.923 0 0 1 29.65-6.846 67.714 67.714 0 0 1 67.637 67.637v3.635l-.6 5.006c-.3 2.484-.351 2.918.053 3.284.473.937 2.007 3.98 3.811 7.564l11.643 23.13c.812 1.612.908 3.068.272 4.1s-1.98 1.6-3.785 1.6h-1.937a10.328 10.328 0 0 0 -10.316 10.317v23.849a7.325 7.325 0 0 1 -7.317 7.316h-14.857a10.328 10.328 0 0 0 -10.317 10.316v1.421a7.325 7.325 0 0 1 -7.317 7.316h-18.482a11.445 11.445 0 0 0 3.772-8.485v-39.355a11.49 11.49 0 0 0 -10.816-11.452v-9.969a36.125 36.125 0 1 0 -3 0v9.969a11.49 11.49 0 0 0 -10.817 11.452v39.355a11.445 11.445 0 0 0 3.772 8.485h-32a7.325 7.325 0 0 1 -7.314-7.316z"/><path d="m142.38 95.8a23.651 23.651 0 1 0 23.652 23.651 23.679 23.679 0 0 0 -23.652-23.651zm-1.5 3.054v19.1h-19.1a20.687 20.687 0 0 1 19.1-19.098zm1.5 41.249a20.68 20.68 0 0 1 -20.6-19.151h20.6a1.5 1.5 0 0 0 1.5-1.5v-20.6a20.652 20.652 0 0 1 -1.5 41.249z"/><path d="m50.539 71.629h9.024a1.5 1.5 0 0 0 1.5-1.5v-18.722a1.5 1.5 0 0 0 -1.5-1.5h-9.024a1.5 1.5 0 0 0 -1.5 1.5v18.722a1.5 1.5 0 0 0 1.5 1.5zm1.5-18.722h6.024v15.722h-6.024z"/><path d="m65.65 71.629h9.024a1.5 1.5 0 0 0 1.5-1.5v-25.237a1.5 1.5 0 0 0 -1.5-1.5h-9.024a1.5 1.5 0 0 0 -1.5 1.5v25.237a1.5 1.5 0 0 0 1.5 1.5zm1.5-25.237h6.024v22.237h-6.024z"/><path d="m80.763 71.629h9.024a1.5 1.5 0 0 0 1.5-1.5v-31.753a1.5 1.5 0 0 0 -1.5-1.5h-9.024a1.5 1.5 0 0 0 -1.5 1.5v31.753a1.5 1.5 0 0 0 1.5 1.5zm1.5-31.753h6.024v28.753h-6.024z"/></g></svg>