<svg id="Capa_1" enable-background="new 0 0 505.145 505.145" height="512" viewBox="0 0 505.145 505.145" width="512" xmlns="http://www.w3.org/2000/svg"><g><g><path d="m435.818 454.409c0 5.696-4.617 10.313-10.313 10.313h-81.953c-5.696 0-10.313-4.617-10.313-10.313v-97.18c0-44.551-36.116-80.667-80.667-80.667-44.551 0-80.667 36.116-80.667 80.667v97.18c0 5.696-4.617 10.313-10.313 10.313h-82.952c-5.696 0-10.313-4.617-10.313-10.313v-225.699l183.746-169.698 183.745 179.639z" fill="#f8f7f8"/><g><g><path d="m252.073 59.012-183.746 169.699v225.698c0 5.696 4.617 10.313 10.313 10.313h33.945c-1.405-1.762-2.25-3.991-2.25-6.42v-183.42c0-17.461 7.329-34.12 20.2-45.919l99.843-91.519c12.558-11.511 31.831-11.511 44.389 0l161.051 147.624v-46.417z" fill="#efedee"/><path d="m466.311 285.888-213.738-195.919-213.739 195.919c-3.708 3.399-9.47 3.149-12.869-.56l-16.07-17.532c-3.399-3.708-3.149-9.47.56-12.869l227.928-208.926c8.028-7.359 20.352-7.359 28.38 0l227.929 208.926c3.708 3.399 3.959 9.161.56 12.869l-16.07 17.532c-3.401 3.709-9.162 3.959-12.871.56z" fill="#97c9f9"/></g><path d="m285.812 228.71h-66.479c-6.831 0-12.369-5.538-12.369-12.369v-31.547c0-6.831 5.538-12.369 12.369-12.369h66.479c6.831 0 12.368 5.538 12.368 12.369v31.547c.001 6.832-5.537 12.369-12.368 12.369z" fill="#efedee"/></g></g><g><path d="m499.759 249.399-227.928-208.926c-10.978-10.064-27.537-10.066-38.516 0l-133.405 122.283c-3.053 2.799-3.26 7.543-.461 10.596 2.799 3.055 7.542 3.261 10.597.461l133.405-122.284c5.2-4.766 13.044-4.766 18.244 0l227.929 208.928c.405.372.506.812.52 1.114.013.305-.049.752-.421 1.157l-16.07 17.532c-.599.654-1.618.699-2.272.1l-213.74-195.919c-2.867-2.629-7.269-2.629-10.136 0l-213.738 195.918c-.653.6-1.673.557-2.273-.1l-16.07-17.53c-.373-.406-.435-.854-.422-1.157s.114-.744.52-1.116l70.623-64.734c3.053-2.799 3.26-7.543.461-10.596-2.798-3.055-7.543-3.261-10.597-.461l-70.622 64.734c-3.271 2.998-5.178 7.089-5.371 11.521-.193 4.432 1.352 8.674 4.35 11.945l16.07 17.53c6.188 6.753 16.714 7.21 23.466 1.021l208.671-191.274 208.671 191.275c3.183 2.917 7.204 4.356 11.215 4.356 4.497 0 8.98-1.811 12.25-5.378l16.071-17.532c2.997-3.271 4.542-7.513 4.349-11.944-.192-4.432-2.1-8.523-5.37-11.52z"/><path d="m435.818 284.907c-4.142 0-7.5 3.357-7.5 7.5v162.001c0 1.552-1.262 2.813-2.813 2.813h-81.953c-1.551 0-2.812-1.262-2.812-2.813v-97.178c0-17.164-4.956-33.82-14.333-48.166-2.266-3.468-6.916-4.441-10.381-2.175-3.467 2.267-4.441 6.914-2.175 10.382 7.777 11.899 11.888 25.717 11.888 39.959v97.179c0 9.822 7.991 17.813 17.812 17.813h81.953c9.822 0 17.813-7.991 17.813-17.813v-162.002c.001-4.142-3.357-7.5-7.499-7.5z"/><path d="m301.554 283.919c-14.521-9.72-31.458-14.856-48.981-14.856-48.615 0-88.167 39.551-88.167 88.166v97.18c0 1.552-1.262 2.813-2.812 2.813h-82.954c-1.551 0-2.813-1.262-2.813-2.813v-39.84c0-4.143-3.358-7.5-7.5-7.5s-7.5 3.357-7.5 7.5v39.84c0 9.822 7.991 17.813 17.813 17.813h82.953c9.822 0 17.812-7.991 17.812-17.813v-97.18c0-40.344 32.823-73.166 73.167-73.166 14.542 0 28.594 4.261 40.637 12.321 3.443 2.304 8.1 1.383 10.405-2.061 2.304-3.442 1.382-8.1-2.06-10.404z"/><path d="m68.327 390.107c4.142 0 7.5-3.357 7.5-7.5v-90.199c0-4.143-3.358-7.5-7.5-7.5s-7.5 3.357-7.5 7.5v90.199c0 4.142 3.358 7.5 7.5 7.5z"/><path d="m285.812 164.927h-66.48c-10.956 0-19.869 8.913-19.869 19.868v31.547c0 10.955 8.913 19.868 19.869 19.868h66.48c10.956 0 19.869-8.913 19.869-19.868v-31.547c0-10.955-8.913-19.868-19.869-19.868zm4.869 51.415c0 2.685-2.184 4.868-4.869 4.868h-66.48c-2.685 0-4.869-2.184-4.869-4.868v-31.547c0-2.685 2.184-4.868 4.869-4.868h66.48c2.685 0 4.869 2.184 4.869 4.868z"/></g></g></svg>