<?xml version="1.0" encoding="iso-8859-1"?>
<!-- Generator: Adobe Illustrator 19.0.0, SVG Export Plug-In . SVG Version: 6.00 Build 0)  -->
<svg version="1.1" id="Capa_1" xmlns="http://www.w3.org/2000/svg" xmlns:xlink="http://www.w3.org/1999/xlink" x="0px" y="0px"
	 viewBox="0 0 512.004 512.004" style="enable-background:new 0 0 512.004 512.004;" xml:space="preserve">
<polygon style="fill:#4BBAED;" points="418.095,21.665 309.921,129.839 346.067,165.985 424.788,119.204 454.241,57.811 "/>
<rect x="392.678" y="53.484" transform="matrix(0.7071 0.7071 -0.7071 0.7071 214.4039 -257.6681)" style="fill:#19A2E0;" width="51.114" height="152.981"/>
<polygon style="fill:#B7E4F8;" points="409.845,0.009 388.632,21.224 439.73,72.322 458.706,72.322 460.945,51.108 "/>
<rect x="439.765" y="72.24" transform="matrix(0.7071 0.7071 -0.7071 0.7071 201.0671 -310.9372)" style="fill:#93D6F4;" width="72.205" height="30.002"/>
<polygon style="fill:#DBDBDB;" points="119.82,370.956 0,490.777 10.638,501.414 53.337,468.079 130.458,381.594 "/>
<rect x="68.363" y="362.069" transform="matrix(0.7071 0.7071 -0.7071 0.7071 338.1458 77.235)" style="fill:#BDBDBD;" width="14.958" height="169.453"/>
<polygon style="fill:#8AD2F4;" points="129.569,311.046 43.974,397.188 79.692,433.134 121.26,414.823 165.287,346.992 "/>
<polygon style="fill:#4BBAED;" points="79.692,433.134 115.41,469.079 201.005,382.937 165.287,346.992 "/>
<polygon style="fill:#DBF1FB;" points="313.779,76.617 227.112,163.283 281.857,230.196 346.529,200.859 374.607,137.445 "/>
<polygon style="fill:#B7E4F8;" points="281.941,230.112 348.529,285.033 435.436,198.273 374.607,137.445 "/>
<polygon style="fill:#FFDB2D;" points="227.029,163.366 69.084,321.311 129.912,382.14 290.024,262.59 287.857,224.195 "/>
<rect x="196.289" y="221.903" transform="matrix(0.7071 0.7071 -0.7071 0.7071 305.9713 -71.5068)" style="fill:#FFB700;" width="86.026" height="223.367"/>
<polygon style="fill:#B7E4F8;" points="296.028,34.675 274.813,55.89 365.488,146.565 386.703,146.565 386.703,125.35 "/>
<g>
	
		<rect x="357.322" y="166.289" transform="matrix(0.7071 0.7071 -0.7071 0.7071 251.6276 -244.9019)" style="fill:#93D6F4;" width="128.23" height="30.002"/>
	
		<rect x="254.832" y="126.897" transform="matrix(-0.7071 -0.7071 0.7071 -0.7071 360.4415 433.0963)" style="fill:#93D6F4;" width="30.172" height="30.002"/>
</g>
<g>
	
		<rect x="169.454" y="212.226" transform="matrix(-0.7071 -0.7071 0.7071 -0.7071 154.3556 518.3906)" style="fill:#FFB700;" width="30.172" height="30.002"/>
	
		<rect x="212.124" y="169.552" transform="matrix(-0.7071 -0.7071 0.7071 -0.7071 257.3734 475.7147)" style="fill:#FFB700;" width="30.172" height="30.002"/>
	
		<rect x="126.734" y="254.904" transform="matrix(-0.7071 -0.7071 0.7071 -0.7071 51.2501 561.0393)" style="fill:#FFB700;" width="30.172" height="30.002"/>
</g>
<g>
</g>
<g>
</g>
<g>
</g>
<g>
</g>
<g>
</g>
<g>
</g>
<g>
</g>
<g>
</g>
<g>
</g>
<g>
</g>
<g>
</g>
<g>
</g>
<g>
</g>
<g>
</g>
<g>
</g>
</svg>
